<svg width="88" height="32" viewBox="0 0 88 32" fill="none" xmlns="http://www.w3.org/2000/svg">
<mask id="mask0_2011_1494" style="mask-type:luminance" maskUnits="userSpaceOnUse" x="0" y="2" width="87" height="30">
<path d="M0 2.33717H86.9402V32H0V2.33717Z" fill="white"/>
</mask>
<g mask="url(#mask0_2011_1494)">
<path d="M8.36754 24.7545C5.65287 24.7545 3.5729 24.0652 2.15794 22.6934C0.749991 21.3283 0.0215867 19.306 0.00279398 16.6334L0.00154114 16.6319V2.3562H4.51529V15.1276C4.51529 16.8045 4.55789 18.1651 5.06429 19.0603C5.54738 19.9144 6.50857 20.3895 8.3743 20.3895C10.2972 20.3895 11.327 19.8726 11.8652 18.9628C12.427 18.0131 12.5089 16.5961 12.5089 14.8789V14.278C12.6766 14.1838 12.8475 14.0914 13.0219 14.0007C14.2183 13.3021 15.5223 12.6925 16.9332 12.1715V16.6545L16.9317 16.6633C16.8678 19.2554 15.9711 21.2113 14.5473 22.5544C12.98 24.0324 10.7845 24.7548 8.36754 24.7548V24.7545ZM82.5322 23.9563L82.543 22.87C82.4999 22.9141 82.456 22.9569 82.4109 22.999C82.0804 23.3078 81.7038 23.561 81.2804 23.7582C80.8662 23.9513 80.3931 24.0966 79.8611 24.1935C79.3382 24.2889 78.7654 24.3365 78.143 24.3365C76.9628 24.3365 75.8743 24.1329 74.8788 23.7256C73.8818 23.3181 72.985 22.7087 72.1895 21.8986C71.3924 21.0869 70.794 20.1766 70.3954 19.1687C69.9972 18.1628 69.7978 17.0615 69.7978 15.8662C69.7978 15.3067 69.8479 14.7576 69.9481 14.2191C70.0484 13.6811 70.1977 13.1601 70.3961 12.6564C70.5956 12.1512 70.8386 11.6736 71.1263 11.2242C71.4114 10.7786 71.7384 10.3643 72.1075 9.98262C72.5064 9.55857 72.9271 9.19062 73.3699 8.87778C73.8147 8.56369 74.282 8.30495 74.7723 8.10157H74.7736C75.2645 7.89868 75.7841 7.74614 76.3334 7.6442C76.8826 7.54226 77.4569 7.49091 78.057 7.49091C78.6366 7.49091 79.1798 7.53975 79.686 7.63769C80.1966 7.73638 80.6675 7.88491 81.0977 8.08353L81.0992 8.08503C81.5344 8.28817 81.9266 8.54165 82.2761 8.84522C82.351 8.91034 82.424 8.97772 82.4949 9.0476L82.4813 8.18723L86.8951 8.15842V24.3345H82.5282L82.532 23.9563H82.5322ZM32.6958 31.9434H31.598L31.1636 31.0136H29.145L28.7268 31.9434H27.6491L29.603 27.8597H30.6797L32.6958 31.9434ZM30.8331 30.3236L30.1337 28.8122L29.4542 30.3236H30.8331ZM36.5373 27.8597H37.5563V30.0726C37.5563 30.4243 37.5694 30.6514 37.5939 30.7551C37.6373 30.9225 37.7392 31.0575 37.9009 31.1582C38.0637 31.2598 38.285 31.3102 38.5661 31.3102C38.8508 31.3102 39.0665 31.2629 39.2116 31.1667C39.3569 31.0707 39.4436 30.9538 39.4729 30.814C39.5022 30.6742 39.5175 30.4433 39.5175 30.1202V27.8597H40.5366V30.007C40.5366 30.4974 40.5095 30.8446 40.4547 31.0469C40.3995 31.2493 40.2988 31.4204 40.1512 31.5604C40.0046 31.6999 39.8079 31.8104 39.5619 31.893C39.3148 31.9757 38.9938 32.0175 38.5967 32.0175C38.1176 32.0175 37.7543 31.9729 37.5072 31.8825C37.2599 31.7924 37.0642 31.6751 36.9201 31.5309C36.776 31.3863 36.6823 31.2361 36.6367 31.0775C36.5701 30.8436 36.5373 30.4974 36.5373 30.0403V27.8597ZM46.3052 31.9434V28.5497H44.8151V27.8597H48.8076V28.5497H47.3245V31.9434H46.3052ZM52.8165 29.9261C52.8165 29.5098 52.8939 29.1599 53.0475 28.8768C53.161 28.6684 53.3181 28.4813 53.5161 28.3158C53.714 28.1505 53.9308 28.0277 54.166 27.9471C54.4803 27.8396 54.8421 27.7855 55.252 27.7855C55.9949 27.7855 56.5875 27.9726 57.034 28.3463C57.4793 28.7208 57.7018 29.2408 57.7018 29.9073C57.7018 30.5678 57.4803 31.085 57.0386 31.4575C56.5971 31.8312 56.0055 32.0175 55.266 32.0175C54.5176 32.0175 53.9212 31.8322 53.4797 31.4605C53.038 31.0898 52.8165 30.5783 52.8165 29.9263V29.9261ZM53.8639 29.8985C53.8639 30.3614 53.9964 30.7123 54.26 30.9518C54.5236 31.1905 54.8586 31.3102 55.264 31.3102C55.6705 31.3102 56.0032 31.1915 56.2646 30.9548C56.5246 30.7171 56.6547 30.3616 56.6547 29.8873C56.6547 29.4186 56.5282 29.0687 56.2738 28.8388C56.0207 28.6076 55.6845 28.4926 55.264 28.4926C54.8446 28.4926 54.5061 28.6096 54.2495 28.8425C53.9929 29.0762 53.8641 29.4279 53.8641 29.8985H53.8639ZM46.9682 8.52637L46.9782 9.79527C47.0649 9.71036 47.1534 9.62895 47.2436 9.55106C47.5803 9.26026 47.9389 9.02005 48.3178 8.83195L48.3183 8.8327C48.643 8.67039 48.9727 8.5404 49.3032 8.44221C50.508 8.08403 51.7485 8.13062 52.8275 8.5439C53.8952 8.95267 54.8045 9.71912 55.3683 10.8067C55.6284 10.3243 55.9794 9.90472 56.3979 9.5488C57.2162 8.85299 58.2902 8.40339 59.4425 8.20501C60.5829 8.00839 61.8074 8.05598 62.9395 8.35254C64.186 8.67916 65.3244 9.3091 66.1247 10.2494C66.6845 10.9069 67.1024 11.7029 67.379 12.6356C67.6524 13.5571 67.7885 14.6106 67.7885 15.7951V24.326H63.3644V17.8948C63.3644 16.8228 63.3065 15.9279 63.1903 15.212C63.0783 14.5212 62.9149 14.0012 62.6997 13.6531C62.4977 13.3259 62.2218 13.0797 61.872 12.9152C61.5077 12.7438 61.0569 12.6577 60.5192 12.6577C59.9604 12.6577 59.4874 12.7541 59.0997 12.947C58.7239 13.1343 58.423 13.4161 58.1974 13.7928V13.7943C57.9534 14.1978 57.77 14.68 57.6464 15.3122C57.5189 15.9654 57.4553 16.7777 57.4553 17.8239V24.326H53.0011V17.8948C53.0011 16.8291 52.942 15.9386 52.8235 15.2233C52.7092 14.5347 52.5421 14.0135 52.3216 13.6596L52.3226 13.6588C52.1164 13.33 51.833 13.0827 51.4722 12.9174C51.0946 12.7443 50.6263 12.6577 50.0665 12.6577C49.4994 12.6577 49.0186 12.7541 48.625 12.9477C48.2433 13.1353 47.9354 13.4184 47.7019 13.7973C47.455 14.1978 47.2674 14.7526 47.1396 15.4617C47.0085 16.1884 46.9429 17.0773 46.9429 18.1288V24.326H42.5782V8.15391H46.9652L46.9682 8.52612V8.52637ZM73.5849 15.7989C73.5849 16.4726 73.6951 17.0873 73.9161 17.6429C74.1359 18.1954 74.4686 18.6973 74.9149 19.1482V19.1497C75.3564 19.5986 75.8463 19.9342 76.384 20.1571C76.9207 20.3795 77.5098 20.4905 78.151 20.4905C78.7253 20.4905 79.2628 20.3793 79.7649 20.1574C80.2718 19.9334 80.7464 19.5958 81.1894 19.1459C81.6314 18.6918 81.9627 18.2012 82.1827 17.6739C82.4007 17.1509 82.5104 16.5876 82.5104 15.9845C82.5104 15.336 82.4002 14.7364 82.1792 14.1858C81.9579 13.634 81.6239 13.1263 81.1774 12.6627L81.1759 12.6612C80.7321 12.1953 80.2528 11.8476 79.7381 11.618C79.2284 11.3905 78.6782 11.2771 78.0874 11.2771C77.4607 11.2771 76.8844 11.3853 76.3574 11.6024C75.8295 11.8201 75.3446 12.1485 74.9021 12.5883L74.9029 12.589C74.4616 13.0299 74.1316 13.5156 73.9134 14.0463C73.6946 14.5778 73.5849 15.1619 73.5849 15.7989ZM35.5946 23.9593V9.35443L35.672 9.32738H35.6723L35.7111 9.31361L35.7497 9.29958L35.7883 9.2853L35.7963 9.2823L35.8642 9.25675L35.865 9.2565L35.9036 9.24197L35.9068 9.24047L35.9417 9.22719V9.22694L35.98 9.21191L35.9845 9.21016L36.0562 9.18136L36.0942 9.16583L36.1321 9.1503L36.2078 9.11824L36.2416 9.10371L36.2453 9.10221L36.2829 9.08568L36.2869 9.08392L36.3205 9.06914L36.3581 9.05236L36.3611 9.05111L36.4318 9.01905L36.433 9.01855L36.4701 9.00127L36.4761 8.99851L36.5074 8.98398L36.5445 8.96645L36.5816 8.94867L36.6187 8.93063L36.6555 8.9126L36.662 8.90934L36.7279 8.87678L36.7304 8.87528L36.8026 8.83871L36.8392 8.81992L36.8492 8.81466L36.8758 8.80064L36.9484 8.76206L37.0211 8.72249L37.0356 8.71447L37.0878 8.68567L37.0933 8.68241L37.1294 8.66213L37.1299 8.66187L37.1702 8.63883L37.2243 8.60777L37.2371 8.60051L37.2388 8.59926L37.2727 8.57947L37.3085 8.55818L37.3153 8.55417L37.3453 8.53614L37.4152 8.49381L37.4195 8.4913L37.4215 8.4898L37.4967 8.44321L37.518 8.42994L37.5212 8.42793L37.5563 8.40564L37.5914 8.3831L37.6232 8.36231L37.6265 8.3603L37.6613 8.33751L37.6656 8.33476L37.7067 8.30771L37.7658 8.26813L37.7748 8.26212L37.7838 8.25586L37.8535 8.20827L37.8628 8.20201L37.8698 8.197L37.9387 8.14891H39.9886V24.3338H35.5941V23.9585L35.5946 23.9593ZM35.6445 6.38532V3.29272L39.4972 3.28997L35.6445 6.38532ZM27.5859 23.9593V11.6167H25.1369V10.2747C27.3111 10.0102 29.6451 9.87817 32.1395 9.87918C32.9799 9.8922 33.783 9.8148 34.5487 9.64724V11.6167H32.0699V24.3345H27.5859V23.9593ZM27.5859 7.20537V2.35796H32.0699V6.90405C30.7115 7.0373 29.4654 7.12873 28.9648 7.14025C28.5576 7.14701 28.0878 7.17106 27.5859 7.20537ZM19.0611 23.9593V11.4762C20.4374 11.0809 21.9023 10.7593 23.4556 10.5109V24.3345H19.0611V23.9593ZM19.0611 8.53063V2.35796H23.4556V7.56831C22.1601 7.76819 20.3543 8.18798 19.0611 8.53063ZM12.5089 10.8004V2.35595H16.9332V9.17334C15.0647 9.75519 13.5901 10.2869 12.5089 10.8004Z" fill="white"/>
</g>
<mask id="mask1_2011_1494" style="mask-type:luminance" maskUnits="userSpaceOnUse" x="7" y="0" width="81" height="20">
<path d="M7.14297 0H87.3849V19.8423H7.14297V0Z" fill="white"/>
</mask>
<g mask="url(#mask1_2011_1494)">
<path fill-rule="evenodd" clip-rule="evenodd" d="M7.41685 18.9125C7.36097 19.0766 7.25573 19.4633 7.18106 19.7233L7.30459 19.7511L7.43739 19.7811C8.13423 17.4785 10.1308 15.5061 13.0218 14.0005C17.7318 11.2503 24.1045 9.87642 32.1397 9.87918C34.5567 9.91625 36.6653 9.20716 38.4649 7.75191C42.4512 4.34972 46.3355 2.42208 50.1178 1.96872C56.4647 0.922995 64.3188 1.48756 73.6806 4.33895C80.0312 6.49102 84.5946 7.36618 87.3709 6.96467C84.1358 6.89554 79.6486 5.74311 73.9086 3.50788C65.7861 0.32261 57.8749 -0.524241 50.1749 0.290049C45.6687 0.816294 41.4709 2.86592 37.5816 6.43892C35.7647 7.78572 33.8486 8.45448 31.8335 8.44547C24.0248 8.49331 17.6807 10.0267 12.8006 13.0459C10.1037 14.7797 8.07785 16.8877 7.4171 18.9125H7.41685Z" fill="#E52322"/>
<path fill-rule="evenodd" clip-rule="evenodd" d="M7.41685 18.9125C7.36097 19.0766 7.25573 19.4633 7.18106 19.7233L7.30459 19.7511L7.43739 19.7811C8.13423 17.4785 10.1308 15.5061 13.0218 14.0005C17.7318 11.2503 24.1045 9.87642 32.1397 9.87918C34.5567 9.91625 36.6653 9.20716 38.4649 7.75191C42.4512 4.34972 46.3355 2.42208 50.1178 1.96872C56.4647 0.922995 64.3188 1.48756 73.6806 4.33895C80.0312 6.49102 84.5946 7.36618 87.3709 6.96467C84.1358 6.89554 79.6486 5.74311 73.9086 3.50788C65.7861 0.32261 57.8749 -0.524241 50.1749 0.290049C45.6687 0.816294 41.4709 2.86592 37.5816 6.43892C35.7647 7.78572 33.8486 8.45448 31.8335 8.44547C24.0248 8.49331 17.6807 10.0267 12.8006 13.0459C10.1037 14.7797 8.07785 16.8877 7.4171 18.9125H7.41685Z" fill="#E52322"/>
</g>
</svg>
