<svg id="logo" xmlns="http://www.w3.org/2000/svg" xmlns:xlink="http://www.w3.org/1999/xlink" width="187.491" height="60.527" viewBox="0 0 187.491 60.527">
  <defs>
    <clipPath id="clip-path">
      <rect id="Rectangle_497" data-name="Rectangle 497" width="187.491" height="60.527" fill="#353534"/>
    </clipPath>
  </defs>
  <path id="Path_102650" data-name="Path 102650" d="M55.524,21.85l2.946,1.445-12.277,7.77h-6.52Zm96.152,1.445,2.946-1.445,15.848,9.216h-6.523ZM61.9,23.111,95.128,2.072l8.631,7.195L77.8,30.911ZM106.38,9.267l8.632-7.195,33.232,21.039-15.9,7.8ZM114.877,0,105.07,8.175,95.261,0,60.13,22.243l-4.673-2.294L33.449,32.744H46.68l13.554-8.582,17.8,8.735L105.07,10.359,132.112,32.9l17.794-8.735,13.558,8.582h13.227L154.686,19.949l-4.674,2.294Z" transform="translate(-11.325)" fill="#353534"/>
  <g id="Group_8279" data-name="Group 8279" transform="translate(0 0)">
    <g id="Group_8278" data-name="Group 8278" clip-path="url(#clip-path)">
      <path id="Path_102651" data-name="Path 102651" d="M5.6,85.821a5.557,5.557,0,1,1,.032-11.114A5.557,5.557,0,1,1,5.6,85.821m0-9.38A3.636,3.636,0,0,0,1.98,80.248a3.688,3.688,0,0,0,3.655,3.842A3.636,3.636,0,0,0,9.256,80.28,3.686,3.686,0,0,0,5.6,76.441" transform="translate(0 -25.294)" fill="#353534" fill-rule="evenodd"/>
      <path id="Path_102652" data-name="Path 102652" d="M31.067,79.42c2.273.554,3.453,1.367,3.453,3.165,0,2.026-1.581,3.222-3.836,3.222A6.63,6.63,0,0,1,26.2,84.09l1.135-1.354a4.941,4.941,0,0,0,3.393,1.4c1.165,0,1.9-.536,1.9-1.365,0-.783-.43-1.2-2.424-1.658-2.288-.554-3.577-1.229-3.577-3.225,0-1.871,1.533-3.132,3.666-3.132A5.955,5.955,0,0,1,34.2,76.1l-1.015,1.429a4.874,4.874,0,0,0-2.915-1.107c-1.105,0-1.752.567-1.752,1.289,0,.843.493,1.214,2.55,1.7" transform="translate(-8.871 -25.31)" fill="#353534" fill-rule="evenodd"/>
      <path id="Path_102653" data-name="Path 102653" d="M58.572,85.692h-2l-1.09-2.6h-5.08l-1.1,2.6H47.365L52.1,74.87h1.747Zm-5.634-8.566-1.842,4.3h3.7Z" transform="translate(-16.037 -25.349)" fill="#353534" fill-rule="evenodd"/>
      <path id="Path_102654" data-name="Path 102654" d="M78.056,85.731H74.05V74.985h4.006a5.383,5.383,0,1,1,0,10.746m0-9.025H75.939v7.305h2.117a3.654,3.654,0,1,0,0-7.305" transform="translate(-25.071 -25.388)" fill="#353534" fill-rule="evenodd"/>
      <path id="Path_102655" data-name="Path 102655" d="M107.86,85.692h-2l-1.09-2.6h-5.08l-1.105,2.6H96.655l4.727-10.822h1.747Zm-5.631-8.566-1.845,4.3h3.7Z" transform="translate(-32.725 -25.349)" fill="#353534" fill-rule="evenodd"/>
      <path id="Path_102656" data-name="Path 102656" d="M141.038,79.42c2.271.554,3.451,1.367,3.451,3.165,0,2.026-1.581,3.222-3.836,3.222a6.634,6.634,0,0,1-4.483-1.717l1.138-1.354a4.936,4.936,0,0,0,3.392,1.4c1.166,0,1.9-.536,1.9-1.365,0-.783-.428-1.2-2.423-1.658-2.287-.554-3.578-1.229-3.578-3.225,0-1.871,1.535-3.132,3.67-3.132a5.952,5.952,0,0,1,3.9,1.352l-1.011,1.429a4.893,4.893,0,0,0-2.918-1.107c-1.107,0-1.749.567-1.749,1.289,0,.843.491,1.214,2.548,1.7" transform="translate(-46.104 -25.31)" fill="#353534" fill-rule="evenodd"/>
      <path id="Path_102657" data-name="Path 102657" d="M166.586,74.988h1.856V85.735h-1.581l-5.923-7.647v7.647h-1.86V74.988h1.751l5.757,7.429Z" transform="translate(-53.86 -25.389)" fill="#353534" fill-rule="evenodd"/>
      <rect id="Rectangle_494" data-name="Rectangle 494" width="1.888" height="10.746" transform="translate(122.057 49.597)" fill="#353534"/>
      <path id="Path_102658" data-name="Path 102658" d="M206.658,76.675h-6.079v2.794h5.387v1.689h-5.387v2.888h6.155v1.686H198.69V74.986h7.968Z" transform="translate(-67.271 -25.388)" fill="#353534" fill-rule="evenodd"/>
      <path id="Path_102659" data-name="Path 102659" d="M220.818,76.66V74.988h8.595v1.4l-6.339,7.677h6.339v1.674h-8.8V84.34l6.341-7.68Z" transform="translate(-74.695 -25.389)" fill="#353534" fill-rule="evenodd"/>
      <path id="Path_102660" data-name="Path 102660" d="M253.972,85.731h-2.288l-3.668-4.838-1.674,1.719v3.119h-1.888V74.985h1.888v5.4l5.113-5.4h2.316L249.3,79.607Z" transform="translate(-82.766 -25.388)" fill="#353534" fill-rule="evenodd"/>
      <path id="Path_102661" data-name="Path 102661" d="M277.728,85.692h-2l-1.09-2.6h-5.08l-1.105,2.6h-1.936l4.728-10.822H273Zm-5.634-8.566-1.842,4.3h3.7Z" transform="translate(-90.237 -25.349)" fill="#353534" fill-rule="evenodd"/>
      <rect id="Rectangle_495" data-name="Rectangle 495" width="4.297" height="1.671" transform="translate(148.273 46.111)" fill="#353534"/>
      <rect id="Rectangle_496" data-name="Rectangle 496" width="4.3" height="1.671" transform="translate(92.218 46.111)" fill="#353534"/>
    </g>
  </g>
</svg>
